<mxfile host="app.diagrams.net" agent="Mozilla/5.0 (Windows NT 10.0; Win64; x64) AppleWebKit/537.36 (KHTML, like Gecko) Chrome/137.0.0.0 Safari/537.36" version="27.1.4">
  <diagram name="ページ1" id="_IsjAYDLukDadYx5VEu5">
    <mxGraphModel dx="1403" dy="862" grid="1" gridSize="10" guides="1" tooltips="1" connect="1" arrows="1" fold="1" page="1" pageScale="1" pageWidth="1169" pageHeight="827" math="0" shadow="0">
      <root>
        <mxCell id="0" />
        <mxCell id="1" parent="0" />
        <mxCell id="vlhBqruiUD_aH68zI-lF-1" value="差分の検出機構&lt;div&gt;～倫理と道徳～&lt;/div&gt;" style="text;html=1;align=center;verticalAlign=middle;whiteSpace=wrap;rounded=0;fillColor=#dae8fc;strokeColor=#6c8ebf;" vertex="1" parent="1">
          <mxGeometry x="80" y="40" width="200" height="40" as="geometry" />
        </mxCell>
        <mxCell id="vlhBqruiUD_aH68zI-lF-2" value="" style="rounded=0;whiteSpace=wrap;html=1;" vertex="1" parent="1">
          <mxGeometry x="80" y="120" width="550" height="230" as="geometry" />
        </mxCell>
        <mxCell id="vlhBqruiUD_aH68zI-lF-3" value="倫理&lt;span style=&quot;background-color: transparent; color: light-dark(rgb(0, 0, 0), rgb(255, 255, 255));&quot;&gt;(ethics)&lt;/span&gt;&lt;div&gt;&lt;br&gt;&lt;div&gt;方向性に近づく条件&lt;/div&gt;&lt;/div&gt;" style="ellipse;whiteSpace=wrap;html=1;shadow=0;opacity=80;fillColor=#d5e8d4;strokeColor=#82b366;" vertex="1" parent="1">
          <mxGeometry x="150" y="160" width="220" height="160" as="geometry" />
        </mxCell>
        <mxCell id="vlhBqruiUD_aH68zI-lF-4" value="道徳&lt;span style=&quot;background-color: transparent; color: light-dark(rgb(0, 0, 0), rgb(255, 255, 255));&quot;&gt;(morals)&lt;/span&gt;&lt;div&gt;&lt;span style=&quot;background-color: transparent; color: light-dark(rgb(0, 0, 0), rgb(255, 255, 255));&quot;&gt;&lt;br&gt;&lt;/span&gt;&lt;/div&gt;&lt;div&gt;&lt;span style=&quot;background-color: transparent; color: light-dark(rgb(0, 0, 0), rgb(255, 255, 255));&quot;&gt;守るべき条件&lt;/span&gt;&lt;/div&gt;" style="ellipse;whiteSpace=wrap;html=1;opacity=80;fillColor=#ffe6cc;strokeColor=#d79b00;" vertex="1" parent="1">
          <mxGeometry x="330" y="160" width="220" height="160" as="geometry" />
        </mxCell>
        <mxCell id="vlhBqruiUD_aH68zI-lF-5" value="許容外" style="text;html=1;align=center;verticalAlign=middle;whiteSpace=wrap;rounded=0;" vertex="1" parent="1">
          <mxGeometry x="550" y="300" width="60" height="30" as="geometry" />
        </mxCell>
      </root>
    </mxGraphModel>
  </diagram>
</mxfile>
